<svg width="234" height="143" viewBox="0 0 234 143" fill="none" xmlns="http://www.w3.org/2000/svg">
<path id="Vector" fill-rule="evenodd" clip-rule="evenodd" d="M156.35 0.850098V17.2966C156.35 19.8725 157.373 22.3429 159.195 24.1644C161.016 25.9858 163.487 27.0091 166.063 27.0091C168.639 27.0091 171.109 25.9858 172.93 24.1644C174.752 22.3429 175.775 19.8725 175.775 17.2966V0.850098H204.913C208.739 0.850098 212.528 1.60376 216.063 3.06806C219.598 4.53236 222.81 6.67861 225.516 9.38427C228.222 12.0899 230.368 15.302 231.832 18.8372C233.297 22.3723 234.05 26.1612 234.05 29.9876V64.0202C234.05 66.0285 233.427 67.9873 232.268 69.6269C231.108 71.2666 229.469 72.5064 227.575 73.1759C223.781 74.5106 220.495 76.9903 218.17 80.2726C215.845 83.5549 214.596 87.4779 214.596 91.5001C214.596 95.5223 215.845 99.4453 218.17 102.728C220.495 106.01 223.781 108.49 227.575 109.824C231.46 111.197 234.05 114.875 234.05 118.98V153.013C234.05 156.839 233.297 160.628 231.832 164.163C230.368 167.698 228.222 170.91 225.516 173.616C222.81 176.322 219.598 178.468 216.063 179.932C212.528 181.396 208.739 182.15 204.913 182.15H175.775V165.704C175.775 163.128 174.752 160.657 172.93 158.836C171.109 157.014 168.639 155.991 166.063 155.991C163.487 155.991 161.016 157.014 159.195 158.836C157.373 160.657 156.35 163.128 156.35 165.704V182.15H30.0877C22.36 182.15 14.9487 179.08 9.48437 173.616C4.02003 168.152 0.950195 160.74 0.950195 153.013V118.98C0.950195 114.862 3.5402 111.197 7.4252 109.824C11.2195 108.49 14.5059 106.01 16.8307 102.728C19.1555 99.4453 20.4041 95.5223 20.4041 91.5001C20.4041 87.4779 19.1555 83.5549 16.8307 80.2726C14.5059 76.9903 11.2195 74.5106 7.4252 73.1759C5.53179 72.5064 3.89245 71.2666 2.73287 69.6269C1.57329 67.9873 0.950481 66.0285 0.950195 64.0202V29.9876C0.950195 22.2599 4.02003 14.8486 9.48437 9.38427C14.9487 3.91993 22.36 0.850098 30.0877 0.850098H156.35ZM175.775 57.7783C175.775 55.2024 174.752 52.732 172.93 50.9105C171.109 49.0891 168.639 48.0658 166.063 48.0658C163.487 48.0658 161.016 49.0891 159.195 50.9105C157.373 52.732 156.35 55.2024 156.35 57.7783V71.2722C156.35 73.8481 157.373 76.3185 159.195 78.14C161.016 79.9614 163.487 80.9847 166.063 80.9847C168.639 80.9847 171.109 79.9614 172.93 78.14C174.752 76.3185 175.775 73.8481 175.775 71.2722V57.7783ZM175.775 111.741C175.775 109.165 174.752 106.695 172.93 104.873C171.109 103.052 168.639 102.028 166.063 102.028C163.487 102.028 161.016 103.052 159.195 104.873C157.373 106.695 156.35 109.165 156.35 111.741V125.222C156.35 127.798 157.373 130.268 159.195 132.09C161.016 133.911 163.487 134.934 166.063 134.934C168.639 134.934 171.109 133.911 172.93 132.09C174.752 130.268 175.775 127.798 175.775 125.222V111.741ZM65.7002 101.213C65.7002 98.6367 66.7235 96.1663 68.5449 94.3448C70.3664 92.5234 72.8368 91.5001 75.4127 91.5001H120.738C123.314 91.5001 125.784 92.5234 127.605 94.3448C129.427 96.1663 130.45 98.6367 130.45 101.213C130.45 103.789 129.427 106.259 127.605 108.08C125.784 109.902 123.314 110.925 120.738 110.925H75.4127C72.8368 110.925 70.3664 109.902 68.5449 108.08C66.7235 106.259 65.7002 103.789 65.7002 101.213ZM65.7002 133.588C65.7002 131.012 66.7235 128.541 68.5449 126.72C70.3664 124.898 72.8368 123.875 75.4127 123.875H94.8377C97.4136 123.875 99.884 124.898 101.705 126.72C103.527 128.541 104.55 131.012 104.55 133.588C104.55 136.164 103.527 138.634 101.705 140.455C99.884 142.277 97.4136 143.3 94.8377 143.3H75.4127C72.8368 143.3 70.3664 142.277 68.5449 140.455C66.7235 138.634 65.7002 136.164 65.7002 133.588Z" fill="#004286"/>
</svg>
