<svg width="16" height="16" viewBox="0 0 16 16" fill="none" xmlns="http://www.w3.org/2000/svg">
<g id="notifications-none">
<path id="Vector" d="M8.00033 14.6667C8.73366 14.6667 9.33366 14.0667 9.33366 13.3334H6.66699C6.66699 14.0667 7.26699 14.6667 8.00033 14.6667ZM12.0003 10.6667V7.33342C12.0003 5.28675 10.9137 3.57341 9.00033 3.12008V2.66675C9.00033 2.11341 8.55366 1.66675 8.00033 1.66675C7.44699 1.66675 7.00033 2.11341 7.00033 2.66675V3.12008C5.09366 3.57341 4.00033 5.28008 4.00033 7.33342V10.6667L2.66699 12.0001V12.6667H13.3337V12.0001L12.0003 10.6667ZM10.667 11.3334H5.33366V7.33342C5.33366 5.68008 6.34033 4.33341 8.00033 4.33341C9.66033 4.33341 10.667 5.68008 10.667 7.33342V11.3334Z" fill="#0C1116"/>
</g>
</svg>
